<svg width="47" height="47" viewBox="0 0 47 47" fill="none" xmlns="http://www.w3.org/2000/svg">
<path d="M45.6131 11.583V29.8094L34.7777 36.0544L34.4755 35.4294L44.9198 29.4097V11.9825L29.8017 3.26877L19.864 8.99649V8.19733L29.8017 2.46983L45.6131 11.583Z" fill="white"/>
<path d="M19.0552 26.841L29.8899 33.0858L29.5432 33.6851L18.3618 27.2406V18.3891H19.0552V26.841Z" fill="white"/>
<path d="M16.0696 14.5131V6.62267H17.0403V16.3126H16.2083L10.8004 8.42223V16.3126H9.8297V6.62267H10.6617L16.0696 14.5131Z" fill="white"/>
<path d="M6.92202 10.8724V6.62267H7.89267V16.3126H6.92202V11.786H1.65277V16.3126H0.682112V6.62267H1.65277V10.8724H6.92202Z" fill="white"/>
<path d="M32.3438 41.968V34.0776H33.3145V43.7675H32.4825L27.0746 35.8771V43.7675H26.1039V34.0776H26.9359L32.3438 41.968Z" fill="white"/>
<path d="M32.3438 34.0776V41.968L26.9359 34.0776H26.1039V43.7675H27.0746V35.8771L32.4825 43.7675H33.3145V34.0776H32.3438ZM18.3618 18.3891V27.2406L29.5432 33.6851L29.8899 33.0858L19.0552 26.841V18.3891H18.3618ZM17.0403 6.62267H16.0696V14.5131L10.6617 6.62267H9.8297V16.3126H10.8004V8.42223L16.2083 16.3126H17.0403V6.62267ZM1.65277 6.62267H0.682112V16.3126H1.65277V11.786H6.92202V16.3126H7.89267V6.62267H6.92202V10.8724H1.65277V6.62267ZM19.596 26.5289L30.6289 32.888L29.7411 34.4229L17.8209 27.5528V17.8487H19.596V26.5289ZM19.864 8.99649L29.8017 3.26877L44.9198 11.9825V29.4097L34.4755 35.4294L34.7777 36.0544L45.6131 29.8094V11.583L29.8017 2.46983L19.864 8.19733V8.99649ZM8.43338 16.853H6.38132V12.3264H2.1935V16.853H0.141441V6.08232H2.1935V10.3322H6.38132V6.08232H8.43338V16.853ZM17.5812 16.853H15.9231L11.3413 10.1676V16.853H9.28895V6.08232H10.9468L15.5288 12.7675V6.08232H17.5812V16.853Z" fill="white"/>
<path fill-rule="evenodd" clip-rule="evenodd" d="M0.000247081 37.1967L13.2969 29.6537V18.3891H14.6835V29.4097L24.8432 35.2654L24.1485 36.4633L14.2017 30.7304L6.38724 34.4353L0.000247081 37.1967L0.897621 38.9013L14.2016 31.3541L24.346 37.2009L25.5631 35.102V44.3077H27.6154V37.6222L32.1975 44.3077H33.8553V35.3885L34.544 36.8128L46.1539 30.1213V11.2709L29.8016 1.84616L19.3232 7.88526V9.93198L29.8016 3.89235L44.3788 12.2942V29.0977L33.8553 35.1629V33.5373H31.803V40.2222L27.2212 33.5373H25.5631V35.0563L15.2244 29.0977V17.8487H12.7561V29.3412L6.10352e-05 36.5729L0.000247081 37.1967ZM45.6131 29.8094V11.583L29.8017 2.46983L19.864 8.19733V8.99649L29.8017 3.26877L44.9198 11.9825V29.4097L34.4755 35.4294L34.7777 36.0544L45.6131 29.8094ZM32.3438 34.0776V41.968L26.9359 34.0776H26.1039V43.7675H27.0746V35.8771L32.4825 43.7675H33.3145V34.0776H32.3438Z" fill="white"/>
<path d="M13.2969 29.6537L0.000247081 37.1967L6.38724 34.4353L14.2017 30.7304L24.1485 36.4633L24.8432 35.2654L14.6835 29.4097V18.3891H13.2969V29.6537Z" fill="white"/>
</svg>
