<svg width="47" height="47" viewBox="0 0 47 47" fill="none" xmlns="http://www.w3.org/2000/svg">
<path fill-rule="evenodd" clip-rule="evenodd" d="M42.1232 8.4552C42.6243 8.46736 43.0137 8.88598 43.0021 9.38196C42.9665 10.8848 42.8639 13.8787 42.6955 16.631C42.7443 16.6474 42.794 16.6647 42.8429 16.6837L43.0226 16.7599L43.0304 16.7638L43.0881 16.7911L43.0959 16.7941C43.8685 17.1785 44.3733 17.9909 44.6652 19.006C44.9597 20.0302 45.0603 21.3334 44.9738 22.8224C44.8005 25.8044 43.8664 29.6203 42.0803 33.6447V33.6466L41.9113 34.0216L41.9094 34.0245C40.0909 37.9872 37.6201 41.3213 35.1623 43.4816C33.9343 44.5608 32.6938 45.3619 31.5236 45.7931C30.3545 46.2238 29.2122 46.2994 28.2326 45.8566C27.7705 45.6476 27.4157 45.3412 27.1808 44.9376C26.9491 44.5391 26.8522 44.0764 26.8478 43.5792C26.8393 42.5995 27.192 41.3929 27.7424 40.0314C28.8433 37.3075 30.8579 33.6875 32.882 29.5577L32.8869 29.546L32.8928 29.5353C34.0281 27.5148 34.9802 25.6252 35.8244 23.9445C36.6655 22.27 37.4067 20.7893 38.1135 19.6105C38.8146 18.441 39.5166 17.5071 40.301 16.9747C40.4897 16.8467 40.686 16.7411 40.8888 16.6603C41.06 13.9114 41.1642 10.866 41.2004 9.33899L41.2072 9.24719C41.2637 8.79489 41.6531 8.44404 42.1232 8.4552ZM14.2834 42.4259C15.1154 42.4259 15.7832 43.1052 15.7834 43.9347C15.7834 44.7644 15.1156 45.4445 14.2834 45.4445C13.4514 45.4442 12.7834 44.7642 12.7834 43.9347C12.7836 43.1053 13.4515 42.4262 14.2834 42.4259ZM42.464 19.6954C42.2973 21.4044 41.4498 24.1285 40.508 26.7511C39.5538 29.4081 38.4605 32.0761 37.7433 33.7247C37.5445 34.1813 37.0124 34.3934 36.5539 34.1906C36.0972 33.9883 35.8934 33.4538 36.091 32.9991C36.7954 31.3797 37.8734 28.7497 38.8117 26.1368C39.7624 23.4894 40.5286 20.9694 40.6701 19.5187C40.6854 19.3619 40.6974 19.1998 40.7121 19.0343C40.4046 19.3889 40.0561 19.8817 39.6584 20.545C38.9942 21.6529 38.2863 23.0636 37.4338 24.7609C36.5951 26.4304 35.6328 28.3413 34.4836 30.3888C32.3939 34.65 30.4807 38.0697 29.4123 40.713C28.8765 42.0386 28.6445 42.963 28.6496 43.5626C28.652 43.8381 28.7054 43.9694 28.7375 44.0245C28.7523 44.0499 28.7728 44.0745 28.8039 44.1017C28.8363 44.1299 28.8878 44.1668 28.9728 44.2052C29.3846 44.3913 30.0215 44.4253 30.9455 44.0763C31.8646 43.729 32.9395 43.0451 34.0812 42.0245C36.3609 39.9864 38.7182 36.7725 40.4338 32.9074C42.1638 29.0095 43.0296 25.3822 43.1779 22.6534C43.2523 21.2833 43.1423 20.2067 42.9172 19.4572C42.8002 19.0677 42.6695 18.8184 42.5539 18.6603C42.5248 19.021 42.496 19.3679 42.464 19.6954ZM44.7248 0.171022C45.1055 -0.104712 45.6268 -0.0381579 45.9289 0.306765L45.9865 0.37903L46.0353 0.457155C46.2609 0.853511 46.1586 1.36674 45.7804 1.64075C44.1922 2.79148 40.7764 5.20779 37.8674 7.11926C37.8834 7.17718 37.8994 7.23613 37.9133 7.29602L37.9152 7.30286L37.9318 7.37708L37.9328 7.38684L37.9611 7.56946C38.0706 8.48747 37.6878 9.45497 36.9953 10.3878C36.2512 11.3901 35.1075 12.4143 33.6496 13.3966C32.022 14.4931 29.9801 15.5512 27.6154 16.4816C27.6093 16.4914 27.6043 16.5022 27.5978 16.5118L22.6779 23.8116L23.1008 33.6486L25.7746 37.1984C25.9326 37.4083 25.991 37.6771 25.9367 37.9337C25.889 38.158 25.758 38.3554 25.5715 38.4865L25.4885 38.5382C25.1532 38.7228 24.1641 39.707 22.2131 39.7072C21.4539 39.7071 20.7523 39.5024 20.1945 39.2501C19.6452 39.0017 19.1743 38.6799 18.881 38.3839C18.57 38.0699 18.5313 37.5759 18.7873 37.2169L21.299 33.6954L20.9201 24.9025L13.0178 28.3204L11.217 32.3761C11.1175 32.6001 10.9309 32.7766 10.6984 32.8605C10.4663 32.944 10.2101 32.928 9.99041 32.8175C9.92708 32.7856 9.8217 32.7493 9.59588 32.6827C9.39728 32.6242 9.12366 32.5465 8.84197 32.4327C8.25241 32.1947 7.58786 31.7881 7.08514 30.9767C6.70886 30.3692 6.54069 29.5773 6.47185 28.9054C6.40155 28.2187 6.42181 27.5159 6.5158 27.0099L6.52068 26.9884L6.53533 26.9269C6.64526 26.5412 6.99839 26.2699 7.40252 26.2706L7.48357 26.2745L12.1926 26.7062L21.1642 22.8253L24.7619 17.4865C23.6942 17.8223 22.5782 18.1327 21.4191 18.4064C16.3465 19.6041 11.3699 19.7115 7.50213 18.9747C5.56929 18.6065 3.89246 18.0244 2.61639 17.2452C1.34256 16.4674 0.428901 15.4672 0.107596 14.257L0.105643 14.2511L0.081229 14.1505L0.0792759 14.1427C-0.053021 13.5718 -0.0205419 13.0354 0.182792 12.5421C0.38408 12.0541 0.738519 11.6409 1.19549 11.2863C2.09734 10.5865 3.47231 10.0581 5.14666 9.60266C8.49627 8.69156 13.3398 8.00228 18.6857 6.95325L18.6974 6.9513L18.7101 6.94934C21.4286 6.57352 23.8909 6.11805 26.0783 5.71106C28.2591 5.30531 30.1809 4.94455 31.7941 4.7677C33.3966 4.59206 34.7644 4.58833 35.8107 4.94153C36.2353 5.08495 36.613 5.29015 36.9328 5.56946C39.7895 3.69023 43.1478 1.31359 44.7248 0.171022ZM20.7834 37.5255C20.8317 37.5501 20.8824 37.5751 20.9347 37.5988C21.3227 37.7742 21.7699 37.8965 22.2131 37.8966C22.7358 37.8966 23.1028 37.8106 23.3869 37.6964C23.5194 37.6431 23.6371 37.5805 23.7502 37.5138L22.2316 35.4962L20.7834 37.5255ZM2.61443 32.7628C3.44642 32.763 4.1134 33.4431 4.11346 34.2726C4.11325 35.102 3.44633 35.7812 2.61443 35.7814C1.78254 35.7812 1.11463 35.102 1.11443 34.2726C1.11448 33.4431 1.78245 32.763 2.61443 32.7628ZM8.23357 28.1603C8.23567 28.339 8.24518 28.5291 8.26482 28.7208C8.32322 29.2905 8.45377 29.7572 8.61541 30.0187C8.86084 30.4149 9.1698 30.6138 9.51482 30.7531C9.64152 30.8042 9.76883 30.8434 9.90545 30.8849L11.0021 28.4152L8.23357 28.1603ZM29.3937 21.8917C30.3085 21.8917 31.0431 22.6399 31.0431 23.5529C31.043 24.4658 30.3084 25.213 29.3937 25.213C28.4793 25.2127 27.7455 24.4656 27.7453 23.5529C27.7454 22.64 28.4792 21.892 29.3937 21.8917ZM35.2355 6.65735C34.5844 6.4378 33.5523 6.39717 31.9894 6.56848C30.4583 6.73637 28.6124 7.08107 26.4074 7.49133C24.229 7.89666 21.7386 8.35697 18.9855 8.73841C13.5016 9.81307 8.88231 10.463 5.61834 11.3507C3.98077 11.7961 2.90142 12.2509 2.29803 12.7189C2.01532 12.9382 1.89823 13.1157 1.84881 13.2355C1.80605 13.3392 1.77687 13.4852 1.83416 13.7325C1.97432 14.3364 2.45504 15.0085 3.48162 15.6525C4.50372 16.2936 5.95243 16.8288 7.75408 17.1798C11.3514 17.8806 16.1071 17.8007 21.007 16.6437C25.9409 15.4786 30.0043 13.6854 32.7082 11.8488C34.065 10.9271 35.0241 10.0327 35.59 9.2511C35.8891 8.83805 36.0444 8.50416 36.1183 8.24524C36.0793 8.26959 36.0407 8.29552 36.0021 8.31946C34.3435 9.34945 31.2266 10.5352 28.1008 11.5851C24.9417 12.6461 21.6629 13.603 19.6047 14.1603C19.1202 14.2912 18.6281 13.9998 18.5002 13.5197C18.373 13.0407 18.6531 12.5421 19.1359 12.4113C21.1669 11.8614 24.4114 10.9158 27.5304 9.86829C30.6828 8.80952 33.6007 7.68089 35.0539 6.77844C35.1162 6.73974 35.1788 6.6991 35.2424 6.6593C35.2405 6.65866 35.2374 6.65799 35.2355 6.65735ZM5.45721 1.66028C6.3719 1.6604 7.10661 2.40842 7.10662 3.32141C7.10653 4.23434 6.37185 4.98145 5.45721 4.98157C4.54246 4.98157 3.8069 4.23441 3.80681 3.32141C3.80682 2.40835 4.54241 1.66028 5.45721 1.66028Z" fill="white"/>
</svg>
