<svg width="47" height="47" viewBox="0 0 47 47" fill="none" xmlns="http://www.w3.org/2000/svg">
<path d="M23.0781 0C24.654 0.000124934 26.0859 0.937167 26.9199 2.46875C28.0025 4.45232 28.5712 6.84318 28.5713 9.37988C28.5713 9.53879 28.5656 9.69754 28.5586 9.85449C28.664 9.73917 28.7724 9.6241 28.8838 9.5127C30.652 7.72892 32.7429 6.44055 34.9229 5.79199C36.6107 5.29684 38.2872 5.64597 39.4004 6.76074C40.4404 7.80264 40.8105 9.33689 40.4443 10.9014L40.3613 11.2139C39.7175 13.4033 38.4271 15.4978 36.6387 17.2705C36.5234 17.3864 36.4024 17.4961 36.2812 17.6025C36.4437 17.5921 36.6083 17.584 36.7734 17.584C39.3106 17.584 41.702 18.1531 43.6875 19.2373C45.22 20.0684 46.1522 21.5033 46.1523 23.0801C46.1523 24.6573 45.2177 26.0884 43.6826 26.9209H43.6816C41.6979 28.0032 39.3064 28.5713 36.7695 28.5713C36.6104 28.5713 36.4521 28.5666 36.2949 28.5596C36.4102 28.6651 36.5252 28.7723 36.6367 28.8838C38.3097 30.5416 39.5469 32.4821 40.2295 34.5146L40.3584 34.9229C40.8537 36.6059 40.5054 38.2863 39.3906 39.3994C38.6113 40.177 37.5548 40.5809 36.416 40.5811C35.933 40.581 35.4342 40.5082 34.9365 40.3604C32.7467 39.7163 30.6508 38.4263 28.8779 36.6377C28.7643 36.524 28.6545 36.4064 28.5469 36.2891C28.5573 36.4484 28.5664 36.6101 28.5664 36.7715C28.5663 39.1496 28.0671 41.4 27.1113 43.3076L26.9141 43.6846C26.0831 45.2164 24.6517 46.1533 23.0742 46.1533C21.4969 46.1531 20.0669 45.2175 19.2344 43.6826C18.1517 41.699 17.5831 39.3082 17.583 36.7715C17.583 36.612 17.5877 36.4524 17.5947 36.2949C17.5532 36.3403 17.512 36.3867 17.4697 36.4316L17.2705 36.6377C15.5022 38.4217 13.4116 39.7098 11.2314 40.3584C10.7309 40.5061 10.2295 40.58 9.74512 40.5801C8.59853 40.5801 7.53526 40.1736 6.75391 39.3906C5.64439 38.2792 5.29623 36.6076 5.79199 34.9365C6.43601 32.7467 7.72759 30.6518 9.5166 28.8789C9.62993 28.7656 9.74528 28.6552 9.8623 28.5479C9.70374 28.5582 9.54336 28.5674 9.38281 28.5674C6.84601 28.5674 4.45504 27.9979 2.46973 26.9141C0.937516 26.0832 0 24.6511 0 23.0752C0.000195874 21.4998 0.936279 20.0678 2.4707 19.2354C4.45452 18.1528 6.84673 17.584 9.38379 17.584C9.54223 17.584 9.7005 17.5888 9.85742 17.5957C9.74188 17.4899 9.62741 17.3813 9.51562 17.2695C7.73195 15.5016 6.44251 13.412 5.79395 11.2324C5.29847 9.54918 5.64776 7.86807 6.7627 6.75488C7.87418 5.64555 9.54907 5.29741 11.2158 5.79492C13.4058 6.43871 15.5003 7.72895 17.2734 9.51758L17.4824 9.73633C17.524 9.78183 17.5641 9.82901 17.6045 9.875C17.5941 9.71272 17.5869 9.54777 17.5869 9.38281C17.587 6.846 18.1559 4.45527 19.2383 2.46875L19.4014 2.18848C20.2492 0.823321 21.6007 0 23.0781 0ZM20.8369 31.2344C19.9937 32.9469 19.6191 34.8478 19.6191 36.7686C19.6192 38.8385 20.0475 40.7733 20.8564 42.3906L21.0234 42.71C21.5202 43.626 22.2757 44.1191 23.0781 44.1191C23.8804 44.119 24.6351 43.6261 25.1318 42.7119C26.0471 41.0309 26.5361 38.9763 26.5361 36.7686C26.5361 34.7555 26.0907 32.8328 25.3135 31.2354C24.6045 31.4369 23.8621 31.5761 23.0781 31.5762C22.2916 31.5762 21.5475 31.4364 20.8369 31.2344ZM15.4971 27.3291L15.0732 27.4961C13.6056 28.1155 12.178 29.0926 10.9521 30.3184L10.9512 30.3193C9.49354 31.7653 8.42848 33.4345 7.85156 35.165L7.74316 35.5127C7.44711 36.5109 7.6316 37.39 8.19336 37.9531C8.76136 38.5207 9.64638 38.7082 10.6553 38.4092C12.4749 37.87 14.3172 36.7296 15.835 35.2012C17.1879 33.8453 18.2846 32.2279 18.8799 30.4219C17.5608 29.6662 16.4726 28.5747 15.7197 27.2529C15.6469 27.2773 15.5722 27.3018 15.4971 27.3291ZM30.4336 27.2578C29.6763 28.5838 28.5829 29.6768 27.2568 30.4326C27.3256 30.6377 27.4025 30.8516 27.499 31.0791C28.0797 32.4546 28.9743 33.7948 30.0938 34.9668L30.3213 35.1992C31.864 36.7542 33.6614 37.8636 35.5156 38.4092C36.5087 38.7049 37.3912 38.5199 37.9561 37.958C38.5232 37.3923 38.7083 36.5068 38.4121 35.4971L38.3037 35.1553C37.767 33.5623 36.7818 31.9691 35.4902 30.6084L35.208 30.3203C34.0005 29.116 32.59 28.144 31.1338 27.5117C31.1277 27.5096 31.1203 27.5067 31.1133 27.5039C30.8654 27.4053 30.6419 27.3271 30.4336 27.2578ZM23.0781 16.6074C19.5107 16.6074 16.6096 19.5083 16.6094 23.0752C16.6094 26.6424 19.5105 29.5439 23.0781 29.5439C26.6456 29.5438 29.5469 26.6423 29.5469 23.0752C29.5466 19.5084 26.6454 16.6076 23.0781 16.6074ZM9.38379 19.6172C7.17575 19.6172 5.12169 20.1049 3.44238 21.0215H3.44141C2.52553 21.5181 2.03341 22.2731 2.0332 23.0752C2.0332 23.8776 2.52571 24.6332 3.44043 25.1299C5.12155 26.045 7.17587 26.5341 9.38379 26.5342C11.3966 26.5341 13.3187 26.0884 14.916 25.3115C14.7145 24.6026 14.5762 23.8591 14.5762 23.0752C14.5762 22.2891 14.7161 21.5452 14.918 20.835C13.2089 19.9948 11.2951 19.6172 9.38379 19.6172ZM36.7715 19.6172C34.7587 19.6172 32.8366 20.062 31.2393 20.8389C31.4409 21.548 31.579 22.291 31.5791 23.0752C31.5791 23.861 31.439 24.6044 31.2373 25.3145C32.9466 26.1549 34.8598 26.5341 36.7715 26.5342C38.9797 26.5342 41.0344 26.0465 42.7139 25.1299C43.6301 24.6331 44.123 23.8776 44.123 23.0752C44.1228 22.273 43.6302 21.5181 42.7158 21.0215C41.0348 20.1048 38.9796 19.6172 36.7715 19.6172ZM10.6396 7.74316C9.70653 7.46707 8.87424 7.61086 8.30859 8.09277L8.19922 8.19336C7.63217 8.7592 7.44783 9.64443 7.74414 10.6543C8.24974 12.36 9.2816 14.0855 10.667 15.5449L10.9492 15.833L11.1787 16.0557C12.3336 17.1567 13.6577 18.0479 15.0225 18.6406L15.4932 18.8174C15.5712 18.845 15.6477 18.8699 15.7217 18.8945C16.4727 17.5777 17.5572 16.4905 18.8711 15.7354C18.3085 14.0633 17.2687 12.3859 15.835 10.9521L15.834 10.9512C14.2915 9.39646 12.4936 8.2888 10.6396 7.74316ZM37.9619 8.19824C37.3958 7.63267 36.5111 7.44602 35.5 7.74219C33.6805 8.28144 31.8389 9.42093 30.3213 10.9492C28.9684 12.305 27.8703 13.923 27.2734 15.7305C28.5832 16.4808 29.6656 17.5598 30.418 18.8691C32.0905 18.3067 33.768 17.2669 35.2021 15.833L35.2031 15.832C36.7582 14.2895 37.8665 12.4927 38.4121 10.6387L38.4619 10.4531C38.6836 9.53195 38.4886 8.72619 37.9619 8.19824ZM23.0781 2.03223C22.2757 2.03223 21.5202 2.52507 21.0234 3.43945C20.1082 5.12038 19.6192 7.17517 19.6191 9.38281C19.6191 11.3954 20.0649 13.3178 20.8418 14.915C21.5509 14.7135 22.294 14.5742 23.0781 14.5742C23.8641 14.5743 24.6072 14.7152 25.3174 14.917C26.1607 13.2043 26.5361 11.3037 26.5361 9.38281C26.5361 7.17512 26.0493 5.12146 25.1328 3.44238L25.1318 3.44141C24.6351 2.52546 23.8805 2.03236 23.0781 2.03223Z" fill="white"/>
</svg>
