<svg width="950" height="42" viewBox="0 0 950 42" fill="none" xmlns="http://www.w3.org/2000/svg">
<path d="M12.1236 37.7786H9.69891V16.4949L9.88076 9.52448L2.42473 36.1292L2.24287 37.7786H0V0.532093H2.42473V21.8158L2.24287 28.7863L9.69891 2.18158L9.88076 0.532093H12.1236V37.7786Z" fill="#153F6A"/>
<path d="M34.3265 0.532093V37.7786H31.9017V13.7812L32.2048 6.8108L26.8704 30.8082H24.4457L19.1113 6.8108L19.4144 13.7812V37.7786H16.9897V0.532093H19.4144L23.8395 17.6655L25.6581 27.9881L27.4766 17.6655L31.9017 0.532093H34.3265Z" fill="#153F6A"/>
<path d="M49.1907 37.7786H39.1887V0.532093H49.1907V2.60726H41.6134V18.1444H47.9783V20.1663H41.6134V35.7035H49.1907V37.7786Z" fill="#153F6A"/>
<path d="M54.9329 37.7786H52.5081V0.532093H54.9329V18.1444H59.7823V5.79982C59.7823 2.02196 61.6009 0 65.8441 0C70.0874 0 71.9059 2.02196 71.9059 5.79982V32.4577C71.9059 36.2356 70.0874 38.3107 65.8441 38.3107C61.6009 38.3107 59.7823 36.2356 59.7823 32.4577V20.1663H54.9329V37.7786ZM69.4812 32.4577V5.79982C69.4812 3.35219 68.3901 2.02196 65.8441 2.02196C63.2982 2.02196 62.207 3.35219 62.207 5.79982V32.4577C62.207 34.9053 63.2982 36.2888 65.8441 36.2888C68.3901 36.2888 69.4812 34.9053 69.4812 32.4577Z" fill="#153F6A"/>
<path d="M82.1826 37.7786H79.7579V2.60726H74.3023V0.532093H87.6383V2.60726H82.1826V37.7786Z" fill="#153F6A"/>
<path d="M99.7903 32.4577V27.1368H102.215V32.4577C102.215 36.2356 100.396 38.3107 96.1532 38.3107C91.9099 38.3107 90.0914 36.2356 90.0914 32.4577V5.79982C90.0914 2.02196 91.9099 0 96.1532 0C100.396 0 102.215 2.02196 102.215 5.79982V11.174H99.7903V5.79982C99.7903 3.35219 98.6992 2.02196 96.1532 2.02196C93.6073 2.02196 92.5161 3.35219 92.5161 5.79982V32.4577C92.5161 34.9053 93.6073 36.2888 96.1532 36.2888C98.6992 36.2888 99.7903 34.9053 99.7903 32.4577Z" fill="#153F6A"/>
<path d="M117.591 0.532093V37.7786H115.166V22.2415H112.378L107.104 37.7786H104.618L109.892 22.0819C107.043 21.4434 105.77 19.315 105.77 15.8564V6.86401C105.77 2.76689 107.589 0.532093 111.832 0.532093H117.591ZM111.832 20.2196H115.166V2.55405H111.832C109.286 2.55405 108.195 4.09712 108.195 6.86401V15.8564C108.195 18.6233 109.286 20.2196 111.832 20.2196Z" fill="#153F6A"/>
<path d="M143.66 37.7786H141.236V2.60726H133.961V37.7786H131.537V0.532093H143.66V37.7786Z" fill="#153F6A"/>
<path d="M150.951 37.7786H148.526V0.532093H154.588C158.831 0.532093 160.65 2.76689 160.65 6.86401V17.9316C160.65 22.0287 158.831 24.3167 154.588 24.3167H150.951V37.7786ZM158.225 17.9316V6.86401C158.225 4.09712 157.134 2.55405 154.588 2.55405H150.951V22.2947H154.588C157.134 22.2947 158.225 20.6984 158.225 17.9316Z" fill="#153F6A"/>
<path d="M163.97 32.4577V5.79982C163.97 2.02196 165.788 0 170.032 0C174.275 0 176.093 2.02196 176.093 5.79982V32.4577C176.093 36.2356 174.275 38.3107 170.032 38.3107C165.788 38.3107 163.97 36.2356 163.97 32.4577ZM173.669 32.4577V5.79982C173.669 3.35219 172.578 2.02196 170.032 2.02196C167.486 2.02196 166.395 3.35219 166.395 5.79982V32.4577C166.395 34.9053 167.486 36.2888 170.032 36.2888C172.578 36.2888 173.669 34.9053 173.669 32.4577Z" fill="#153F6A"/>
<path d="M186.37 37.7786H183.945V2.60726H178.49V0.532093H191.826V2.60726H186.37V37.7786Z" fill="#153F6A"/>
<path d="M206.706 37.7786H204.281V16.4949L204.463 9.52448L197.007 36.1292L196.825 37.7786H194.582V0.532093H197.007V21.8158L196.825 28.7863L204.281 2.18158L204.463 0.532093H206.706V37.7786Z" fill="#153F6A"/>
<path d="M217.633 37.7786H211.572V0.532093H217.633C221.452 0.532093 223.089 2.39442 223.089 5.79982V14.8454C223.089 16.9738 222.362 18.4104 220.664 19.1554C222.786 19.9003 223.695 21.5498 223.695 23.9442V31.9256C223.695 35.7035 221.877 37.7786 217.633 37.7786ZM221.271 31.9256V23.9442C221.271 21.4966 220.179 20.1663 217.633 20.1663H213.996V35.7567H217.633C220.179 35.7567 221.271 34.3732 221.271 31.9256ZM220.664 14.8454V5.79982C220.664 3.67145 219.755 2.55405 217.633 2.55405H213.996V18.1444H217.633C219.755 18.1444 220.664 16.9738 220.664 14.8454Z" fill="#153F6A"/>
<path d="M227.785 32.4577V5.79982C227.785 2.02196 229.603 0 233.846 0C238.09 0 239.908 2.02196 239.908 5.79982V32.4577C239.908 36.2356 238.09 38.3107 233.846 38.3107C229.603 38.3107 227.785 36.2356 227.785 32.4577ZM237.484 32.4577V5.79982C237.484 3.35219 236.392 2.02196 233.846 2.02196C231.301 2.02196 230.209 3.35219 230.209 5.79982V32.4577C230.209 34.9053 231.301 36.2888 233.846 36.2888C236.392 36.2888 237.484 34.9053 237.484 32.4577Z" fill="#153F6A"/>
<path d="M256.55 37.7786H254.125V2.60726H246.851V37.7786H244.426V0.532093H256.55V37.7786Z" fill="#153F6A"/>
<path d="M261.113 32.4577V5.79982C261.113 2.02196 262.931 0 267.175 0C271.418 0 273.236 2.02196 273.236 5.79982V32.4577C273.236 36.2356 271.418 38.3107 267.175 38.3107C262.931 38.3107 261.113 36.2356 261.113 32.4577ZM270.812 32.4577V5.79982C270.812 3.35219 269.721 2.02196 267.175 2.02196C264.629 2.02196 263.538 3.35219 263.538 5.79982V32.4577C263.538 34.9053 264.629 36.2888 267.175 36.2888C269.721 36.2888 270.812 34.9053 270.812 32.4577Z" fill="#153F6A"/>
<path d="M290.121 37.7786H287.635L281.391 20.1663H280.179V37.7786H277.754V0.532093H280.179V18.1444H281.391L287.635 0.532093H290.121L283.452 19.1554L290.121 37.7786Z" fill="#153F6A"/>
<path d="M305.458 37.7786H302.973L301.821 30.8082H294.001L292.91 37.7786H290.425L296.729 0.478884H299.154L305.458 37.7786ZM301.518 28.7863L299.76 17.9848L297.942 5.48056L296.123 17.9848L294.365 28.7863H301.518Z" fill="#153F6A"/>
<path d="M316.979 32.4577V24.4763C316.979 21.7094 315.887 20.1663 313.342 20.1663H310.311V18.1444H313.342C315.887 18.1444 316.979 16.6013 316.979 13.8344V5.79982C316.979 3.35219 315.887 2.02196 313.342 2.02196C310.796 2.02196 309.704 3.35219 309.704 5.79982V11.174H307.28V5.79982C307.28 2.02196 309.098 0 313.342 0C317.585 0 319.403 2.02196 319.403 5.79982V13.8344C319.403 16.5481 318.433 18.3572 316.372 19.1554C318.433 19.9535 319.403 21.7626 319.403 24.4763V32.4577C319.403 36.2356 317.585 38.3107 313.342 38.3107C309.098 38.3107 307.28 36.2356 307.28 32.4577V27.1368H309.704V32.4577C309.704 34.9053 310.796 36.2888 313.342 36.2888C315.887 36.2888 316.979 34.9053 316.979 32.4577Z" fill="#153F6A"/>
<path d="M336.478 37.7786H333.992L332.841 30.8082H325.021L323.93 37.7786H321.444L327.749 0.478884H330.173L336.478 37.7786ZM332.538 28.7863L330.78 17.9848L328.961 5.48056L327.143 17.9848L325.385 28.7863H332.538Z" fill="#153F6A"/>
<path d="M351.029 37.7786H348.604V20.1663H341.33V37.7786H338.905V0.532093H341.33V18.1444H348.604V0.532093H351.029V37.7786Z" fill="#153F6A"/>
<path d="M368.019 37.7786H365.594V16.4949L365.776 9.52448L358.32 36.1292L358.138 37.7786H355.895V0.532093H358.32V21.8158L358.138 28.7863L365.594 2.18158L365.776 0.532093H368.019V37.7786Z" fill="#153F6A"/>
<path d="M384.038 0.532093V37.7786H381.614V22.2415H378.825L373.551 37.7786H371.066L376.34 22.0819C373.491 21.4434 372.218 19.315 372.218 15.8564V6.86401C372.218 2.76689 374.036 0.532093 378.28 0.532093H384.038ZM378.28 20.2196H381.614V2.55405H378.28C375.734 2.55405 374.643 4.09712 374.643 6.86401V15.8564C374.643 18.6233 375.734 20.2196 378.28 20.2196Z" fill="#153F6A"/>
<path d="M391.596 37.7786H387.959V34.6393H391.596V37.7786Z" fill="#153F6A"/>
<path d="M416.797 37.7786H414.373V20.1663H407.098V37.7786H404.674V0.532093H407.098V18.1444H414.373V0.532093H416.797V37.7786Z" fill="#153F6A"/>
<path d="M431.665 37.7786H421.663V0.532093H431.665V2.60726H424.088V18.1444H430.453V20.1663H424.088V35.7035H431.665V37.7786Z" fill="#153F6A"/>
<path d="M434.68 32.4577V5.79982C434.68 2.02196 436.498 0 440.742 0C444.985 0 446.803 2.02196 446.803 5.79982V32.4577C446.803 36.2356 444.985 38.3107 440.742 38.3107C436.498 38.3107 434.68 36.2356 434.68 32.4577ZM444.379 32.4577V5.79982C444.379 3.35219 443.287 2.02196 440.742 2.02196C438.196 2.02196 437.104 3.35219 437.104 5.79982V32.4577C437.104 34.9053 438.196 36.2888 440.742 36.2888C443.287 36.2888 444.379 34.9053 444.379 32.4577Z" fill="#153F6A"/>
<path d="M457.383 37.7786H451.321V0.532093H462.233V2.60726H453.746V13.9941H457.383C461.626 13.9941 463.445 16.2821 463.445 20.3792V31.4467C463.445 35.5439 461.626 37.7786 457.383 37.7786ZM461.02 31.4467V20.3792C461.02 17.6123 459.929 16.016 457.383 16.016H453.746V35.7567H457.383C459.929 35.7567 461.02 34.2136 461.02 31.4467Z" fill="#153F6A"/>
<path d="M474.324 18.8361L480.749 37.7786H478.264L474.627 27.1368L473.051 21.4434L471.474 27.1368L467.898 37.7786H465.413L471.838 18.8361L465.655 0.532093H468.14L471.717 11.174L473.051 16.2289L474.384 11.174L478.021 0.532093H480.507L474.324 18.8361Z" fill="#153F6A"/>
<path d="M482.866 32.4577V5.79982C482.866 2.02196 484.685 0 488.928 0C493.172 0 494.99 2.02196 494.99 5.79982V32.4577C494.99 36.2356 493.172 38.3107 488.928 38.3107C484.685 38.3107 482.866 36.2356 482.866 32.4577ZM492.565 32.4577V5.79982C492.565 3.35219 491.474 2.02196 488.928 2.02196C486.382 2.02196 485.291 3.35219 485.291 5.79982V32.4577C485.291 34.9053 486.382 36.2888 488.928 36.2888C491.474 36.2888 492.565 34.9053 492.565 32.4577Z" fill="#153F6A"/>
<path d="M514.056 42.0886H511.935V37.7786H499.811V42.0886H497.689V35.7035C499.811 35.7035 500.66 30.489 500.842 26.179L501.933 0.532093H512.238V35.7035H514.056V42.0886ZM509.813 35.7035V2.60726H504.236L503.266 26.179C503.084 29.744 502.6 33.8944 500.66 35.7035H509.813Z" fill="#153F6A"/>
<path d="M529.213 37.7786H526.789V16.4949L526.97 9.52448L519.514 36.1292L519.332 37.7786H517.09V0.532093H519.514V21.8158L519.332 28.7863L526.789 2.18158L526.97 0.532093H529.213V37.7786Z" fill="#153F6A"/>
<path d="M551.416 0.532093V37.7786H548.991V13.7812L549.294 6.8108L543.96 30.8082H541.535L536.201 6.8108L536.504 13.7812V37.7786H534.079V0.532093H536.504L540.929 17.6655L542.748 27.9881L544.566 17.6655L548.991 0.532093H551.416Z" fill="#153F6A"/>
<path d="M568.887 37.7786H566.402L565.25 30.8082H557.43L556.339 37.7786H553.854L560.158 0.478884H562.583L568.887 37.7786ZM564.947 28.7863L563.189 17.9848L561.37 5.48056L559.552 17.9848L557.794 28.7863H564.947Z" fill="#153F6A"/>
<path d="M592.797 37.7786H590.312L584.068 20.1663H582.856V37.7786H580.431V0.532093H582.856V18.1444H584.068L590.312 0.532093H592.797L586.129 19.1554L592.797 37.7786Z" fill="#153F6A"/>
<path d="M595.223 32.4577V5.79982C595.223 2.02196 597.042 0 601.285 0C605.528 0 607.347 2.02196 607.347 5.79982V32.4577C607.347 36.2356 605.528 38.3107 601.285 38.3107C597.042 38.3107 595.223 36.2356 595.223 32.4577ZM604.922 32.4577V5.79982C604.922 3.35219 603.831 2.02196 601.285 2.02196C598.739 2.02196 597.648 3.35219 597.648 5.79982V32.4577C597.648 34.9053 598.739 36.2888 601.285 36.2888C603.831 36.2888 604.922 34.9053 604.922 32.4577Z" fill="#153F6A"/>
<path d="M623.988 37.7786H621.564V20.1663H614.289V37.7786H611.865V0.532093H614.289V18.1444H621.564V0.532093H623.988V37.7786Z" fill="#153F6A"/>
<path d="M638.25 32.4577V27.1368H640.675V32.4577C640.675 36.2356 638.856 38.3107 634.613 38.3107C630.37 38.3107 628.551 36.2356 628.551 32.4577V5.79982C628.551 2.02196 630.37 0 634.613 0C638.856 0 640.675 2.02196 640.675 5.79982V11.174H638.25V5.79982C638.25 3.35219 637.159 2.02196 634.613 2.02196C632.067 2.02196 630.976 3.35219 630.976 5.79982V32.4577C630.976 34.9053 632.067 36.2888 634.613 36.2888C637.159 36.2888 638.25 34.9053 638.25 32.4577Z" fill="#153F6A"/>
<path d="M645.564 37.7786V35.7567C648.11 35.7567 648.595 33.6815 649.201 30.3293L649.261 29.8505L642.654 0.532093H645.018L648.595 16.4949L650.413 26.4983L651.868 16.4949L655.02 0.532093H657.384L651.504 30.3293C650.656 35.0118 649.746 37.7786 645.564 37.7786Z" fill="#153F6A"/>
<path d="M672.845 37.7786H670.42V2.60726H664.843L663.752 30.3293C663.57 35.065 661.933 37.7786 657.69 37.7786V35.7567C660.236 35.7567 661.206 33.7347 661.327 30.3293L662.54 0.532093H672.845V37.7786Z" fill="#153F6A"/>
<path d="M689.816 20.3792V31.4467C689.816 35.5439 687.997 37.7786 683.754 37.7786H677.692V0.532093H680.117V13.9941H683.754C687.997 13.9941 689.816 16.2821 689.816 20.3792ZM680.117 35.7567H683.754C686.3 35.7567 687.391 34.2136 687.391 31.4467V20.3792C687.391 17.6123 686.3 16.016 683.754 16.016H680.117V35.7567Z" fill="#153F6A"/>
<path d="M699.198 37.7786H696.773V2.60726H691.317V0.532093H704.653V2.60726H699.198V37.7786Z" fill="#153F6A"/>
<path d="M717.887 37.7786H715.401L714.25 30.8082H706.43L705.339 37.7786H702.854L709.158 0.478884H711.583L717.887 37.7786ZM713.947 28.7863L712.189 17.9848L710.37 5.48056L708.552 17.9848L706.794 28.7863H713.947Z" fill="#153F6A"/>
<path d="M734.257 42.0886H732.135V37.7786H720.314V0.532093H722.739V35.7035H730.013V0.532093H732.438V35.7035H734.257V42.0886Z" fill="#153F6A"/>
<path d="M749.428 37.7786H747.003V16.4949L747.185 9.52448L739.729 36.1292L739.547 37.7786H737.304V0.532093H739.729V21.8158L739.547 28.7863L747.003 2.18158L747.185 0.532093H749.428V37.7786Z" fill="#153F6A"/>
<path d="M765.448 0.532093V37.7786H763.023V22.2415H760.234L754.961 37.7786H752.475L757.749 22.0819C754.9 21.4434 753.627 19.315 753.627 15.8564V6.86401C753.627 2.76689 755.445 0.532093 759.689 0.532093H765.448ZM759.689 20.2196H763.023V2.55405H759.689C757.143 2.55405 756.052 4.09712 756.052 6.86401V15.8564C756.052 18.6233 757.143 20.2196 759.689 20.2196Z" fill="#153F6A"/>
<path d="M788.789 32.4577V27.1368H791.214V32.4577C791.214 36.2356 789.395 38.3107 785.152 38.3107C780.909 38.3107 779.09 36.2356 779.09 32.4577V5.79982C779.09 2.02196 780.909 0 785.152 0C789.395 0 791.214 2.02196 791.214 5.79982V11.174H788.789V5.79982C788.789 3.35219 787.698 2.02196 785.152 2.02196C782.606 2.02196 781.515 3.35219 781.515 5.79982V32.4577C781.515 34.9053 782.606 36.2888 785.152 36.2888C787.698 36.2888 788.789 34.9053 788.789 32.4577Z" fill="#153F6A"/>
<path d="M807.56 37.7786H805.135V2.60726H797.861V37.7786H795.436V0.532093H807.56V37.7786Z" fill="#153F6A"/>
<path d="M822.428 37.7786H812.426V0.532093H822.428V2.60726H814.85V18.1444H821.215V20.1663H814.85V35.7035H822.428V37.7786Z" fill="#153F6A"/>
<path d="M839.687 42.0886H837.566V37.7786H825.745V0.532093H828.17V35.7035H835.444V0.532093H837.869V35.7035H839.687V42.0886Z" fill="#153F6A"/>
<path d="M854.858 37.7786H852.434V16.4949L852.615 9.52448L845.159 36.1292L844.978 37.7786H842.735V0.532093H845.159V21.8158L844.978 28.7863L852.434 2.18158L852.615 0.532093H854.858V37.7786Z" fill="#153F6A"/>
<path d="M872.333 37.7786H869.848L868.696 30.8082H860.876L859.785 37.7786H857.3L863.604 0.478884H866.029L872.333 37.7786ZM868.393 28.7863L866.635 17.9848L864.816 5.48056L862.998 17.9848L861.24 28.7863H868.393Z" fill="#153F6A"/>
<path d="M887.672 37.7786H885.247V2.60726H879.671L878.58 30.3293C878.398 35.065 876.761 37.7786 872.518 37.7786V35.7567C875.064 35.7567 876.034 33.7347 876.155 30.3293L877.367 0.532093H887.672V37.7786Z" fill="#153F6A"/>
<path d="M904.643 37.7786H902.219V16.4949L902.401 9.52448L894.944 36.1292L894.763 37.7786H892.52V0.532093H894.944V21.8158L894.763 28.7863L902.219 2.18158L902.401 0.532093H904.643V37.7786Z" fill="#153F6A"/>
<path d="M918.905 32.4577V27.1368H921.33V32.4577C921.33 36.2356 919.511 38.3107 915.268 38.3107C911.025 38.3107 909.206 36.2356 909.206 32.4577V5.79982C909.206 2.02196 911.025 0 915.268 0C919.511 0 921.33 2.02196 921.33 5.79982V11.174H918.905V5.79982C918.905 3.35219 917.814 2.02196 915.268 2.02196C912.722 2.02196 911.631 3.35219 911.631 5.79982V32.4577C911.631 34.9053 912.722 36.2888 915.268 36.2888C917.814 36.2888 918.905 34.9053 918.905 32.4577Z" fill="#153F6A"/>
<path d="M931.311 37.7786H928.886V2.60726H923.43V0.532093H936.766V2.60726H931.311V37.7786Z" fill="#153F6A"/>
<path d="M950 37.7786H947.515L946.363 30.8082H938.543L937.452 37.7786H934.967L941.271 0.478884H943.696L950 37.7786ZM946.06 28.7863L944.302 17.9848L942.483 5.48056L940.665 17.9848L938.907 28.7863H946.06Z" fill="#153F6A"/>
</svg>
