<svg width="176" height="159" viewBox="0 0 176 159" fill="none" xmlns="http://www.w3.org/2000/svg">
<path d="M143.33 79.3258C143.358 91.0136 138.774 102.241 130.572 110.568C129.53 111.593 128.126 112.167 126.664 112.168C125.202 112.169 123.798 111.596 122.754 110.572C121.71 109.548 121.11 108.156 121.082 106.694C121.054 105.233 121.601 103.818 122.605 102.755C128.735 96.4985 132.169 88.0878 132.169 79.328C132.169 70.5683 128.735 62.1576 122.605 55.9006C121.601 54.8378 121.054 53.4234 121.082 51.9617C121.11 50.5 121.71 49.1076 122.754 48.084C123.798 47.0604 125.202 46.4874 126.664 46.4882C128.126 46.4889 129.53 47.0634 130.572 48.0881C138.773 56.4144 143.357 67.6395 143.33 79.3258ZM141.564 25.0317C140.48 24.0416 139.05 23.5184 137.583 23.5755C136.116 23.6326 134.731 24.2653 133.728 25.3366C132.724 26.4079 132.183 27.8315 132.222 29.2989C132.26 30.7663 132.876 32.1594 133.935 33.1763C140.404 38.9986 145.578 46.1161 149.119 54.0671C152.66 62.018 154.49 70.6247 154.49 79.3286C154.49 88.0325 152.66 96.6391 149.119 104.59C145.578 112.541 140.404 119.659 133.935 125.481C132.894 126.502 132.294 127.89 132.263 129.347C132.232 130.805 132.773 132.217 133.77 133.28C134.767 134.344 136.141 134.976 137.597 135.04C139.054 135.104 140.478 134.595 141.564 133.623C149.148 126.757 155.21 118.379 159.359 109.027C163.508 99.6758 165.651 89.5589 165.651 79.3286C165.651 69.0982 163.508 58.9814 159.359 49.63C155.21 40.2786 149.148 31.8973 141.564 25.0317ZM109.848 23.0808V135.571C109.823 137.602 109.248 139.588 108.183 141.319C107.119 143.049 105.606 144.458 103.804 145.396C102.003 146.335 99.9802 146.767 97.9524 146.647C95.9247 146.527 93.9674 145.859 92.2889 144.715L46.7052 112.808H26.1422C21.7022 112.808 17.444 111.044 14.3045 107.905C11.1649 104.765 9.40112 100.507 9.40112 96.0669V62.5847C9.40112 58.1447 11.1649 53.8866 14.3045 50.747C17.444 47.6074 21.7022 45.8437 26.1422 45.8437H46.7052L92.2889 13.9363C93.9676 12.793 95.9247 12.1261 97.9522 12.0065C99.9797 11.887 102.002 12.3193 103.803 13.2574C105.604 14.1956 107.118 15.6045 108.182 17.3343C109.246 19.064 109.822 21.05 109.848 23.0808ZM42.8833 57.0044H26.1422C24.6622 57.0044 23.2428 57.5923 22.1963 58.6388C21.1498 59.6853 20.5618 61.1047 20.5618 62.5847V96.0669C20.5618 97.5469 21.1498 98.9663 22.1963 100.013C23.2428 101.059 24.6622 101.647 26.1422 101.647H42.8833V57.0044ZM98.7197 135.59L98.6868 23.0808L54.044 54.3308V104.326L98.6868 135.576L98.7197 135.59Z" fill="#ACACAC"/>
</svg>
