<svg width="176" height="159" viewBox="0 0 176 159" fill="none" xmlns="http://www.w3.org/2000/svg">
<path d="M163.97 94.9071C169.164 99.9463 161.125 107.991 156.082 102.795L140.5 87.2146L124.919 102.795C119.877 107.991 111.838 99.9463 117.031 94.9071L132.612 79.3258L117.031 63.7445C111.838 58.7047 119.876 50.6614 124.919 55.8562L140.5 71.437L156.082 55.8562C161.124 50.6614 169.163 58.7047 163.97 63.7445L148.389 79.3258L163.97 94.9071ZM92.2642 13.9558L46.6941 45.8536H26.1372C21.6985 45.8536 17.4416 47.6169 14.303 50.7555C11.1644 53.8941 9.40112 58.151 9.40112 62.5897V96.0619C9.40112 100.501 11.1644 104.757 14.303 107.896C17.4416 111.035 21.6985 112.798 26.1372 112.798H46.6941L92.2642 144.696C93.9422 145.84 95.8989 146.507 97.926 146.627C99.9532 146.747 101.975 146.315 103.776 145.377C105.577 144.439 107.09 143.03 108.154 141.3C109.218 139.57 109.793 137.585 109.818 135.554V23.0976C109.792 21.0674 109.217 19.082 108.153 17.3528C107.089 15.6235 105.576 14.215 103.775 13.2771C101.974 12.3393 99.9527 11.9071 97.9258 12.0266C95.8989 12.1461 93.9423 12.8128 92.2642 13.9558ZM42.8733 101.641H26.1372C24.6576 101.641 23.2387 101.053 22.1925 100.007C21.1463 98.9604 20.5585 97.5414 20.5585 96.0619V62.5897C20.5585 61.1102 21.1463 59.6912 22.1925 58.645C23.2387 57.5988 24.6576 57.011 26.1372 57.011H42.8733V101.641ZM98.6657 135.559L54.0306 104.318V54.3388L98.6602 23.0982L98.6931 135.573L98.6657 135.559Z" fill="#ACACAC"/>
</svg>
