<svg width="654" height="37" viewBox="0 0 654 37" fill="none" xmlns="http://www.w3.org/2000/svg">
<path d="M31.05 31.15C27.5167 34.65 23.2167 36.4 18.15 36.4C13.0833 36.4 8.78334 34.65 5.25001 31.15C1.75001 27.5833 6.09457e-06 23.2667 6.09457e-06 18.2C6.09457e-06 13.1 1.75001 8.8 5.25001 5.3C8.78334 1.76667 13.0833 -1.54972e-06 18.15 -1.54972e-06C23.2167 -1.54972e-06 27.5167 1.76667 31.05 5.3C34.5833 8.8 36.35 13.1 36.35 18.2C36.35 23.3 34.5833 27.6167 31.05 31.15ZM10.1 26.45C12.2333 28.5833 14.9167 29.65 18.15 29.65C21.3833 29.65 24.0667 28.5833 26.2 26.45C28.3667 24.2833 29.45 21.5333 29.45 18.2C29.45 14.8667 28.3667 12.1167 26.2 9.95C24.0333 7.78333 21.35 6.7 18.15 6.7C14.95 6.7 12.2667 7.78333 10.1 9.95C7.93334 12.1167 6.85001 14.8667 6.85001 18.2C6.85001 21.5333 7.93334 24.2833 10.1 26.45ZM54.0996 17.7L67.5496 35.7H59.5996L47.0996 19.3V35.7H40.1996V0.699998H47.0996V16.15L59.0996 0.699998H67.0496L54.0996 17.7ZM67.3613 0.699998H93.1113V7.3H83.6613V35.7H76.7613V7.3H67.3613V0.699998ZM123.113 35.7H116.213V14.35L101.213 35.7H95.9633V0.699998H102.863V22.1L117.863 0.699998H123.113V35.7ZM125.906 35.7V29.3C128.039 29.6 129.606 29.1667 130.606 28C131.606 26.8 132.106 24.6 132.106 21.4V0.699998H155.906V35.7H149.056V7.3H138.956V21.2C138.956 27.2333 137.573 31.3167 134.806 33.45C132.439 35.3167 129.473 36.0667 125.906 35.7ZM188.545 35.7H181.645V14.35L166.645 35.7H161.395V0.699998H168.295V22.1L183.295 0.699998H188.545V35.7ZM204.738 0.699998H218.738V35.7H211.838V23.55H207.888L199.838 35.7H192.088L200.638 22.8C198.404 22 196.588 20.6333 195.188 18.7C193.788 16.7667 193.088 14.6333 193.088 12.3C193.088 9.1 194.221 6.36667 196.488 4.1C198.754 1.83333 201.504 0.699998 204.738 0.699998ZM204.738 17.5H211.838V7.15H204.738C203.438 7.15 202.321 7.65 201.388 8.65C200.454 9.65 199.988 10.8667 199.988 12.3C199.988 13.7333 200.454 14.9667 201.388 16C202.321 17 203.438 17.5 204.738 17.5Z" fill="#153F6A"/>
<path d="M265.189 31.15C261.655 34.65 257.355 36.4 252.289 36.4C247.222 36.4 242.922 34.65 239.389 31.15C235.889 27.5833 234.139 23.2667 234.139 18.2C234.139 13.1 235.889 8.8 239.389 5.3C242.922 1.76667 247.222 -1.54972e-06 252.289 -1.54972e-06C257.355 -1.54972e-06 261.655 1.76667 265.189 5.3C268.722 8.8 270.489 13.1 270.489 18.2C270.489 23.3 268.722 27.6167 265.189 31.15ZM244.239 26.45C246.372 28.5833 249.055 29.65 252.289 29.65C255.522 29.65 258.205 28.5833 260.339 26.45C262.505 24.2833 263.589 21.5333 263.589 18.2C263.589 14.8667 262.505 12.1167 260.339 9.95C258.172 7.78333 255.489 6.7 252.289 6.7C249.089 6.7 246.405 7.78333 244.239 9.95C242.072 12.1167 240.989 14.8667 240.989 18.2C240.989 21.5333 242.072 24.2833 244.239 26.45ZM269.736 0.699998H295.486V7.3H286.036V35.7H279.136V7.3H269.736V0.699998ZM323.738 17.7L337.188 35.7H329.238L316.738 19.3V35.7H309.838V0.699998H316.738V16.15L328.738 0.699998H336.688L323.738 17.7ZM339.6 0.699998H352.65C355.983 0.699998 358.817 1.83333 361.15 4.1C363.45 6.36667 364.6 9.15 364.6 12.45C364.6 15.75 363.45 18.5333 361.15 20.8C358.817 23.0667 355.983 24.2 352.65 24.2H346.5V35.7H339.6V0.699998ZM346.5 17.75H352.65C354.117 17.75 355.333 17.25 356.3 16.25C357.267 15.2167 357.75 13.95 357.75 12.45C357.75 10.9167 357.267 9.65 356.3 8.65C355.333 7.65 354.117 7.15 352.65 7.15H346.5V17.75ZM394.528 35.7H387.028L384.928 29.4H370.978L368.878 35.7H361.428L373.678 0.699998H382.228L394.528 35.7ZM377.978 8.65L373.178 22.95H382.778L377.978 8.65ZM412.257 36.4C407.023 36.4 402.673 34.65 399.207 31.15C395.773 27.6833 394.057 23.3667 394.057 18.2C394.057 13 395.773 8.68333 399.207 5.25C402.673 1.75 407.023 -1.54972e-06 412.257 -1.54972e-06C415.423 -1.54972e-06 418.34 0.749999 421.007 2.25C423.707 3.71667 425.807 5.71667 427.307 8.25L421.357 11.7C420.49 10.1333 419.257 8.91667 417.657 8.05C416.057 7.15 414.257 6.7 412.257 6.7C408.857 6.7 406.107 7.76667 404.007 9.9C401.94 12.0667 400.907 14.8333 400.907 18.2C400.907 21.5333 401.94 24.2833 404.007 26.45C406.107 28.5833 408.857 29.65 412.257 29.65C414.257 29.65 416.057 29.2167 417.657 28.35C419.29 27.45 420.523 26.2333 421.357 24.7L427.307 28.15C425.807 30.6833 423.707 32.7 421.007 34.2C418.34 35.6667 415.423 36.4 412.257 36.4ZM450.445 14.6V0.699998H457.295V35.7H450.445V21.2H437.445V35.7H430.545V0.699998H437.445V14.6H450.445ZM475.847 35.7H462.797V0.699998H469.697V12.2H475.847C479.181 12.2 482.014 13.3333 484.347 15.6C486.647 17.8667 487.797 20.65 487.797 23.95C487.797 27.25 486.647 30.0333 484.347 32.3C482.014 34.5667 479.181 35.7 475.847 35.7ZM497.847 35.7H490.997V0.699998H497.847V35.7ZM469.697 18.65V29.25H475.847C477.314 29.25 478.531 28.75 479.497 27.75C480.464 26.75 480.947 25.4833 480.947 23.95C480.947 22.4167 480.464 21.15 479.497 20.15C478.531 19.15 477.314 18.65 475.847 18.65H469.697ZM519.25 17.7L530 35.7H522.15L515.35 24.3L508.55 35.7H500.75L511.45 17.75L501.3 0.699998H509.1L515.35 11.2L521.6 0.699998H529.4L519.25 17.7ZM544.368 0.699998H564.268V7.3H551.268V35.7H544.368V0.699998ZM561.859 35.7V29.3C563.992 29.6 565.559 29.1667 566.559 28C567.559 26.8 568.059 24.6 568.059 21.4V0.699998H591.859V35.7H585.009V7.3H574.909V21.2C574.909 27.2333 573.526 31.3167 570.759 33.45C568.392 35.3167 565.426 36.0667 561.859 35.7ZM627.348 35.7H619.848L617.748 29.4H603.798L601.698 35.7H594.248L606.498 0.699998H615.048L627.348 35.7ZM610.798 8.65L605.998 22.95H615.598L610.798 8.65ZM648.296 17.6C651.63 19.3333 653.296 22.1 653.296 25.9C653.296 29 652.113 31.5333 649.746 33.5C647.413 35.4333 644.363 36.4 640.596 36.4C634.096 36.4 629.746 33.65 627.546 28.15L633.496 24.8C634.53 28.2 636.896 29.9 640.596 29.9C642.463 29.9 643.896 29.5167 644.896 28.75C645.93 27.95 646.446 26.85 646.446 25.45C646.446 24.05 645.946 22.9667 644.946 22.2C643.946 21.4 642.546 21 640.746 21H636.396V14.85H639.696C641.43 14.85 642.78 14.4833 643.746 13.75C644.713 12.9833 645.196 11.95 645.196 10.65C645.196 9.31667 644.763 8.28333 643.896 7.55C643.063 6.81667 641.846 6.45 640.246 6.45C637.246 6.45 635.146 7.91667 633.946 10.85L628.096 7.45C630.463 2.48333 634.513 -1.54972e-06 640.246 -1.54972e-06C643.68 -1.54972e-06 646.513 0.933332 648.746 2.8C650.946 4.63333 652.046 7.1 652.046 10.2C652.046 13.3333 650.796 15.8 648.296 17.6Z" fill="#BC1206"/>
</svg>
